<?xml version="1.0" encoding="utf-8"?>
<!-- Generator: Adobe Illustrator 19.2.0, SVG Export Plug-In . SVG Version: 6.00 Build 0)  -->
<svg version="1.1" id="Capa_1" xmlns="http://www.w3.org/2000/svg" xmlns:xlink="http://www.w3.org/1999/xlink" x="0px" y="0px"
	 viewBox="0 0 16.7 15.4" style="enable-background:new 0 0 16.7 15.4;" xml:space="preserve">
<style type="text/css">
	.st0{fill:#0F3C5D;}
</style>
<g>
	<path class="st0" d="M2.2,10.6c-1,0.8-0.3,0.9,0.2,1.2C4,12.5,5.6,13.2,7.2,14c0.4,0.2,0.7,0.2,1.1,0c2.2-0.9,4.4-1.8,6.6-2.7
		c0.3-0.1,0.5-0.2,0.7-0.5c0.3-0.4,0.5-0.9,0.1-1.3c-0.3-0.4-0.7-0.2-1.1-0.1c-0.3,0.1-0.6,0.2-0.9,0.3c-0.2,0.1-0.4,0.1-0.5-0.2
		c0-0.3,0-0.5,0.4-0.5c0.1,0,0.2,0,0.4,0c0.7,0.1,0.8-0.1,0.5-0.7c-0.3-0.3,0-0.3,0.2-0.4c0.5-0.2,0.8-0.6,0.8-1.2
		c0-0.7-0.3-0.9-0.9-0.8C14.3,6,14,6.2,13.7,6.3c-0.3,0.1-0.6,0.3-0.7-0.2c-0.1-0.3-0.2-0.7,0.3-0.9c0.5-0.2,1-0.4,1.5-0.6
		c0.4-0.2,0.7-0.5,0.8-0.9c0.1-0.9-0.3-1.2-1.1-1c-2.1,0.6-4.2,1.3-6.3,2c-0.5,0.1-0.8,0.1-1.3,0C5,3.9,3.1,3.2,1.2,2.5
		C0.9,2.4,0.5,2.4,0.6,2c0-0.3,0.4-0.3,0.6-0.3c2.2-0.5,4.3-1,6.5-1.5c0.3-0.1,0.7-0.1,1,0c2,0.4,4,0.9,6,1.3
		c1.7,0.4,2.2,1.8,1.2,3.2c-0.2,0.3-0.1,0.4,0,0.7c0.6,0.9,0.6,1.7,0,2.6c-0.2,0.2-0.2,0.4,0,0.6c1,1,0.8,2.7-0.5,3.3
		C13,13,10.5,14.1,8,15.2c-0.3,0.2-0.6,0-0.9-0.1C5,14,2.9,12.9,0.8,11.8c-0.2-0.1-0.4-0.2-0.4-0.4s0.2-0.3,0.4-0.3
		C1.2,10.9,1.6,10.6,2.2,10.6z"/>
	<path class="st0" d="M2.1,7.1C1.5,8,1.5,8,2.3,8.4c1.5,0.7,3,1.4,4.5,2.1c0.5,0.2,1,0.3,1.5,0c0.9-0.4,1.7-0.7,2.6-1.1
		c0.5-0.2,1.3,0,1.5,0.5c0.1,0.2,0,0.3-0.2,0.4c-1.4,0.6-2.8,1.2-4.3,1.8c-0.3,0.1-0.6,0-0.9-0.2c-2.1-1.1-4.3-2.2-6.4-3.2
		C0.4,8.6,0.1,8.4,0.1,8.1c0-0.4,0.3-0.4,0.6-0.5C1.1,7.4,1.5,7.3,2.1,7.1z"/>
	<path class="st0" d="M2.1,4.1c-0.9,0.7-0.3,0.8,0.2,1c1.5,0.6,3,1.3,4.5,2c0.6,0.3,1.1,0.3,1.6,0c0.4-0.2,0.9-0.3,1.4-0.5
		s0.7-0.1,0.9,0.4s-0.1,0.6-0.4,0.8c0,0,0,0-0.1,0C7.5,8.9,7.5,8.9,4.9,7.6C3.5,7,2.2,6.3,0.8,5.7C0.5,5.5,0.2,5.4,0.2,5
		c0-0.3,0.3-0.4,0.6-0.5C1.1,4.3,1.5,4.1,2.1,4.1z"/>
	<path class="st0" d="M10.3,5.4L12,4.5c0,0,0.5,0.5,0.7,2C13,8,14.3,8.7,14.3,8.7s-0.7-0.2-0.9-0.1s-0.5,0-0.5,0s-0.2,0.6-0.1,1.1
		c0,0-0.8-0.1-1.4-1.7S11,6,10.3,5.4z"/>
</g>
</svg>
