<?xml version="1.0" encoding="utf-8"?>
<!-- Generator: Adobe Illustrator 19.1.0, SVG Export Plug-In . SVG Version: 6.00 Build 0)  -->
<svg version="1.1" id="Capa_1" xmlns="http://www.w3.org/2000/svg" xmlns:xlink="http://www.w3.org/1999/xlink" x="0px" y="0px"
	 viewBox="0 0 16.7 15.4" style="enable-background:new 0 0 16.7 15.4;" xml:space="preserve">
<style type="text/css">
	.st0{fill:#0F3C5D;}
	.st1{fill-rule:evenodd;clip-rule:evenodd;fill:#DDDDDD;}
	.st2{fill:#0F3C5C;}
	.st3{fill:#0090D2;}
	.st4{fill:#1D1D1B;}
	.st5{fill-rule:evenodd;clip-rule:evenodd;fill:#1D1D1B;}
	.st6{fill:#868686;}
</style>
<path class="st0" d="M15,6.9v3.1c0,1.5-0.5,2.8-1.6,3.9c-1.1,1.1-2.4,1.6-3.9,1.6H5.5c-1.5,0-2.8-0.5-3.9-1.6C0.5,12.7,0,11.4,0,9.9
	V5.8C0,4.3,0.5,3.1,1.6,2C2.7,0.9,4,0.4,5.5,0.4c3.3,0.1,5.1,0.1,5.4,0.2L8.3,3.1H4.1c-0.4,0-0.7,0.1-1,0.4c-0.3,0.3-0.4,0.6-0.4,1
	v6.8c0,0.4,0.1,0.7,0.4,1c0.3,0.3,0.6,0.4,1,0.4h6.8c0.4,0,0.7-0.1,1-0.4c0.3-0.3,0.4-0.6,0.4-1V9.6L15,6.9z M5.9,10.7l2.2-0.7
	l5.6-5.6l-1.6-1.5L6.7,8.4L5.9,10.7z M15.1,3.1l1.5-1.5l-0.3-1.2L15.1,0l-1.5,1.5L15.1,3.1z"/>
</svg>
