<?xml version="1.0" encoding="utf-8"?>
<!-- Generator: Adobe Illustrator 19.2.0, SVG Export Plug-In . SVG Version: 6.00 Build 0)  -->
<svg version="1.1" id="Capa_1" xmlns="http://www.w3.org/2000/svg" xmlns:xlink="http://www.w3.org/1999/xlink" x="0px" y="0px"
	 viewBox="0 0 16.7 15.4" style="enable-background:new 0 0 16.7 15.4;" xml:space="preserve">
<style type="text/css">
	.st0{fill:#0F3C5D;}
</style>
<g>
	<g>
		<polygon class="st0" points="7.4,13 4.5,10.2 5.6,9.1 7.4,10.9 11.1,7.2 12.2,8.2 		"/>
	</g>
	<g>
		<path class="st0" d="M14.4,2.5H13V1c0-0.5-0.4-0.9-0.9-0.9h-1c-0.5,0-0.9,0.4-0.9,0.9v1.5H6.5V1c0-0.5-0.4-0.9-0.9-0.9h-1
			C4.1,0.1,3.7,0.5,3.7,1v1.5H2.3c-0.5,0-0.9,0.4-0.9,0.9v11c0,0.5,0.4,0.9,0.9,0.9h12.1c0.5,0,0.9-0.4,0.9-0.9v-11
			C15.3,2.9,14.9,2.5,14.4,2.5z M11,1.3C11,1.2,11.1,1,11.3,1h0.8c0.2,0,0.3,0.1,0.3,0.3v2.6c0,0.2-0.1,0.3-0.3,0.3h-0.8
			c-0.2,0-0.3-0.1-0.3-0.3V1.3z M4.3,1.3C4.3,1.2,4.4,1,4.6,1h0.8c0.2,0,0.3,0.1,0.3,0.3v2.6c0,0.2-0.1,0.3-0.3,0.3H4.6
			c-0.2,0-0.3-0.1-0.3-0.3V1.3z M14.6,13.9c0,0.3-0.2,0.5-0.5,0.5H2.6c-0.3,0-0.5-0.2-0.5-0.5V6c0-0.3,0.2-0.5,0.5-0.5h11.5
			c0.3,0,0.5,0.2,0.5,0.5V13.9z"/>
	</g>
</g>
</svg>
