<?xml version="1.0" encoding="utf-8"?>
<!-- Generator: Adobe Illustrator 19.1.0, SVG Export Plug-In . SVG Version: 6.00 Build 0)  -->
<svg version="1.1" id="Capa_1" xmlns="http://www.w3.org/2000/svg" xmlns:xlink="http://www.w3.org/1999/xlink" x="0px" y="0px"
	 viewBox="0 0 53.5 39.6" style="enable-background:new 0 0 53.5 39.6;" xml:space="preserve">
<style type="text/css">
	.st0{fill:#DDDDDD;}
	.st1{fill-rule:evenodd;clip-rule:evenodd;fill:#DDDDDD;}
	.st2{fill:#0F3C5C;}
	.st3{fill:#0090D2;}
	.st4{fill:#1D1D1B;}
	.st5{fill-rule:evenodd;clip-rule:evenodd;fill:#1D1D1B;}
	.st6{fill:#868686;}
</style>
<g>
	<path class="st1" d="M26.7,39.6c-7.3,0-14.6,0-21.9,0c-2.4,0-4.3-1.5-4.8-3.7C0,35.4,0,35,0,34.7c0-9.9,0-19.8,0-29.7
		c0-2.6,1.8-4.5,3.8-4.9C4.2,0,4.6,0,5,0c14.6,0,29.1,0,43.7,0c2.9,0,4.9,1.9,4.9,4.9c0,9.9,0,19.9,0,29.8c0,2.9-2,4.9-4.9,4.9
		C41.3,39.6,34,39.6,26.7,39.6z M26.8,2.3c-7.3,0-14.5,0-21.8,0C3.3,2.3,2.3,3.2,2.3,5c0,9.9,0,19.8,0,29.7c0,1.7,0.9,2.6,2.6,2.6
		c14.6,0,29.1,0,43.7,0c1.7,0,2.6-0.9,2.6-2.6c0-9.9,0-19.8,0-29.7c0-1.7-0.9-2.6-2.6-2.6C41.3,2.3,34,2.3,26.8,2.3z"/>
	<path class="st1" d="M21,17.8c-0.2,0.3-0.4,0.4-0.5,0.6c-4.5,4.5-9,9.1-13.6,13.6c-0.1,0.1-0.3,0.3-0.4,0.4C6,32.7,5.4,32.6,5,32.2
		c-0.4-0.4-0.4-1-0.1-1.4c0.1-0.2,0.3-0.3,0.4-0.5c4.8-4.8,9.6-9.5,14.3-14.3c1-1,1.6-1.1,2.7,0c3.6,3.7,7.3,7.3,11,11
		c0.1,0.1,0.2,0.3,0.4,0.4c0.1-0.1,0.2-0.1,0.2-0.1c1.6-1.6,3.2-3.2,4.8-4.8c0.5-0.5,1.3-0.6,1.7-0.1c2.6,2.6,5.2,5.2,7.8,7.9
		c0.1,0.1,0.2,0.2,0.3,0.4c0.4,0.5,0.4,1.1,0,1.6c-0.4,0.4-1.1,0.4-1.6,0c-0.2-0.1-0.3-0.3-0.5-0.5c-2.3-2.3-4.6-4.6-6.8-6.8
		c-1.4,1.4-2.8,2.8-4.2,4.2c0.1,0.1,0.2,0.2,0.3,0.3c1.1,1.1,2.3,2.3,3.4,3.4c0.5,0.5,0.6,1.2,0.1,1.7c-0.5,0.5-1.1,0.5-1.7-0.1
		c-1.3-1.3-2.5-2.5-3.8-3.8c-4.1-4.1-8.2-8.2-12.3-12.3C21.3,18.2,21.2,18.1,21,17.8z"/>
	<path class="st1" d="M28,9.3c0-2.6,2.1-4.7,4.6-4.7c2.6,0,4.7,2.1,4.7,4.7c0,2.6-2.1,4.6-4.7,4.6C30,13.9,27.9,11.9,28,9.3z
		 M32.6,11.6c1.3,0,2.3-1.1,2.3-2.3C34.9,8,33.9,7,32.6,7c-1.3,0-2.3,1-2.3,2.3C30.3,10.6,31.3,11.6,32.6,11.6z"/>
</g>
</svg>
