<?xml version="1.0" encoding="utf-8"?>
<!-- Generator: Adobe Illustrator 19.2.0, SVG Export Plug-In . SVG Version: 6.00 Build 0)  -->
<svg version="1.1" id="Capa_1" xmlns="http://www.w3.org/2000/svg" xmlns:xlink="http://www.w3.org/1999/xlink" x="0px" y="0px"
	 viewBox="0 0 16.7 15.4" style="enable-background:new 0 0 16.7 15.4;" xml:space="preserve">
<style type="text/css">
	.st0{fill:#0F3C5D;}
	.st1{fill:none;stroke:#0F3C5D;stroke-width:0.7;stroke-miterlimit:10;}
	.st2{fill:#FFFFFF;stroke:#0F3C5D;stroke-width:0.7;stroke-miterlimit:10;}
</style>
<g>
	<path class="st0" d="M9.7,13.1H9.3H2.7v-0.3H1.3c-0.3,0-0.5-0.2-0.5-0.5V3.6h1.9V2.9H0.1v9.3c0,0.7,0.5,1.2,1.2,1.2h11.8v-0.3H9.7z
		"/>
	<path class="st0" d="M15.3,13.5H2.4V1.9h14.2v10.2C16.6,12.9,16,13.5,15.3,13.5z M3,12.8h12.2c0.3,0,0.6-0.3,0.6-0.6V2.6H3V12.8z"
		/>
	<rect x="5" y="4.8" class="st1" width="3.9" height="3.9"/>
	<line class="st2" x1="4.6" y1="10.6" x2="9.3" y2="10.6"/>
	<g>
		<line class="st2" x1="10.5" y1="10.6" x2="14.4" y2="10.6"/>
		<line class="st2" x1="10.5" y1="8.7" x2="14.4" y2="8.7"/>
		<line class="st2" x1="10.5" y1="6.9" x2="14.4" y2="6.9"/>
		<line class="st2" x1="10.5" y1="4.7" x2="14.4" y2="4.7"/>
	</g>
</g>
</svg>
