<?xml version="1.0" encoding="utf-8"?>
<!-- Generator: Adobe Illustrator 19.2.1, SVG Export Plug-In . SVG Version: 6.00 Build 0)  -->
<svg version="1.1" id="Capa_1" xmlns="http://www.w3.org/2000/svg" xmlns:xlink="http://www.w3.org/1999/xlink" x="0px" y="0px"
	 viewBox="0 0 76 76" style="enable-background:new 0 0 76 76;" xml:space="preserve">
<style type="text/css">
	.st0{fill:#103C5D;}
</style>
<path class="st0" d="M38,2.1c4.3,0,4.7,3.6,4.4,6.4c-0.2,2.2,4.4,1.8,6.3,2.8c2,1,5.3,3.4,6,7.8c0.7,4.4,1.1,18.1,1.2,18.6
	c0.1,0.5,0.4,5.4,1.8,7.3c1.6,2.2,7.3,8,9.1,9.3c2.9,2,3.6,3.8,3.6,4.9c0,1.4-0.8,4.3-3.8,5.2c-3.4,1-6.4,2.2-9.9,2.5
	c-3.5,0.3-11.7,0.8-12.3,0.8c-0.6-0.1-0.9,3.5-2.2,4.6c-1,0.9-1.9,1.7-4.3,1.7c-2,0-4.6-0.6-5.2-3c-0.7-3-1.3-3.2-1.4-3.3
	c-0.2-0.2-14.6-1.5-15.7-1.7c-1-0.2-9.3-2.5-9.8-4.4C5,58.4,7,55.9,9.4,54.1c3.7-2.8,8.6-8.6,9-9.7c0.8-2,1.6-6.3,1.5-8.7
	c0-2.4-0.2-13,0.8-16c0.4-1,1.8-5.4,3.8-6.9c1.9-1.4,5.1-2.8,7.8-3.6c2-0.6,1.2-2.7,1.3-3.9C33.9,3.3,34.9,2.1,38,2.1z"/>
</svg>
