<?xml version="1.0" encoding="utf-8"?>
<!-- Generator: Adobe Illustrator 19.1.0, SVG Export Plug-In . SVG Version: 6.00 Build 0)  -->
<svg version="1.1" id="Capa_1" xmlns="http://www.w3.org/2000/svg" xmlns:xlink="http://www.w3.org/1999/xlink" x="0px" y="0px"
	 viewBox="0 0 16.4 15" style="enable-background:new 0 0 16.4 15;" xml:space="preserve">
<style type="text/css">
	.st0{fill:#0F3C5D;}
	.st1{fill-rule:evenodd;clip-rule:evenodd;fill:#DDDDDD;}
	.st2{fill:#0F3C5C;}
	.st3{fill:#0090D2;}
	.st4{fill:#1D1D1B;}
	.st5{fill-rule:evenodd;clip-rule:evenodd;fill:#1D1D1B;}
	.st6{fill:#868686;}
</style>
<path class="st0" d="M10.9,2.7H15c0.4,0,0.7,0.1,1,0.4c0.3,0.3,0.4,0.6,0.4,1v5.5H9.5V8.2H6.8v1.4H0V4.1c0-0.4,0.1-0.7,0.4-1
	c0.3-0.3,0.6-0.4,1-0.4h4.1V1.4c0-0.4,0.1-0.7,0.4-1C6.1,0.1,6.4,0,6.8,0h2.7c0.4,0,0.7,0.1,1,0.4c0.3,0.3,0.4,0.6,0.4,1V2.7z
	 M16.4,10.9v2.7c0,0.4-0.1,0.7-0.4,1c-0.3,0.3-0.6,0.4-1,0.4H1.4c-0.4,0-0.7-0.1-1-0.4C0.1,14.3,0,14,0,13.6v-2.7H16.4z M6.8,2.7
	h2.7V1.4H6.8V2.7z"/>
</svg>
