<?xml version="1.0" encoding="utf-8"?>
<!-- Generator: Adobe Illustrator 19.1.0, SVG Export Plug-In . SVG Version: 6.00 Build 0)  -->
<svg version="1.1" id="Capa_1" xmlns="http://www.w3.org/2000/svg" xmlns:xlink="http://www.w3.org/1999/xlink" x="0px" y="0px"
	 viewBox="0 0 16.3 16.3" style="enable-background:new 0 0 16.3 16.3;" xml:space="preserve">
<style type="text/css">
	.st0{fill:#0F3C5D;}
	.st1{fill-rule:evenodd;clip-rule:evenodd;fill:#DDDDDD;}
	.st2{fill:#0F3C5C;}
	.st3{fill:#0090D2;}
	.st4{fill:#1D1D1B;}
	.st5{fill-rule:evenodd;clip-rule:evenodd;fill:#1D1D1B;}
	.st6{fill:#868686;}
</style>
<path class="st0" d="M4.1,1.1C5.3,0.4,6.7,0,8.1,0c1.5,0,2.8,0.4,4.1,1.1c1.2,0.7,2.2,1.7,3,3c0.7,1.3,1.1,2.6,1.1,4.1
	c0,1.5-0.4,2.8-1.1,4.1c-0.7,1.3-1.7,2.2-3,3s-2.6,1.1-4.1,1.1c-1.5,0-2.8-0.4-4.1-1.1c-1.3-0.7-2.2-1.7-3-3C0.4,11,0,9.6,0,8.1
	c0-1.5,0.4-2.8,1.1-4.1C1.8,2.8,2.8,1.8,4.1,1.1z M6.8,9.5h2.7c0,0,0.1-0.1,0.2-0.1c0.1,0,0.2-0.2,0.4-0.3s0.4-0.4,0.5-0.6
	c0.2-0.2,0.3-0.5,0.4-0.9c0.1-0.4,0.2-0.8,0.2-1.3c0-0.5-0.1-0.9-0.2-1.2c-0.2-0.3-0.4-0.6-0.6-0.8C10.2,4,10,3.9,9.7,3.8
	C9.4,3.7,9.1,3.6,8.9,3.6c-0.2,0-0.5,0-0.7,0c-1,0-1.7,0.3-2.3,0.8C5.2,4.8,4.9,5.6,4.9,6.8h2c0,0,0.1,0,0.2,0c0.1,0,0.1,0,0.1,0
	c0,0,0.1,0,0.1,0c0,0,0-0.1,0-0.1c0-0.1,0-0.1,0-0.2s0-0.1,0-0.1c0,0,0-0.1,0-0.1c0,0,0,0,0.1-0.1c0,0,0.1,0,0.1,0c0,0,0.1,0,0.1,0
	c0.1,0,0.1,0,0.1,0c0,0,0.1,0,0.2,0c0.1,0,0.1,0,0.2,0c0.2,0,0.3,0,0.4,0.1c0.1,0.1,0.2,0.2,0.2,0.4c0,0.2,0,0.3-0.1,0.4
	c0,0.1-0.2,0.2-0.4,0.3c0,0-0.1,0-0.2,0c-0.1,0-0.2,0.1-0.4,0.2C7.6,7.7,7.4,7.8,7.3,7.9C7.2,8.1,7,8.3,6.9,8.6
	C6.8,8.9,6.8,9.2,6.8,9.5z M6.8,10.9v1.4h2.7v-1.4H6.8z"/>
</svg>
